<svg xmlns="http://www.w3.org/2000/svg" width="2000" height="800" viewBox="0 0 2000 800" role="img" aria-labelledby="title desc">
  <title id="title">Electron microscope technology banner</title>
  <desc id="desc">Wide dark blue high technology banner featuring an electron microscope workstation and digital measurement motifs.</desc>
  <defs>
    <linearGradient id="bg" x1="0" y1="0" x2="1" y2="1">
      <stop stop-color="#030d26"/><stop offset=".5" stop-color="#071d43"/><stop offset="1" stop-color="#030918"/>
    </linearGradient>
    <radialGradient id="aura" cx="32%" cy="52%" r="55%"><stop stop-color="#087fa1" stop-opacity=".35"/><stop offset="1" stop-color="#04234c" stop-opacity="0"/></radialGradient>
    <linearGradient id="metal" x1="0" y1="0" x2="1" y2="1"><stop stop-color="#f9ffff"/><stop offset=".35" stop-color="#9eb8c8"/><stop offset=".62" stop-color="#f4ffff"/><stop offset="1" stop-color="#61798f"/></linearGradient>
    <linearGradient id="glass" x1="0" y1="0" x2="0" y2="1"><stop stop-color="#9af8ff" stop-opacity=".9"/><stop offset="1" stop-color="#0c4b78" stop-opacity=".75"/></linearGradient>
    <pattern id="grid" width="55" height="55" patternUnits="userSpaceOnUse"><path d="M55 0H0V55" fill="none" stroke="#5bdaf1" stroke-opacity=".11" stroke-width="1"/></pattern>
    <filter id="glow" x="-40%" y="-40%" width="180%" height="180%"><feGaussianBlur stdDeviation="7" result="b"/><feMerge><feMergeNode in="b"/><feMergeNode in="SourceGraphic"/></feMerge></filter>
    <filter id="shadow" x="-30%" y="-30%" width="180%" height="180%"><feDropShadow dx="0" dy="18" stdDeviation="16" flood-color="#001022" flood-opacity=".8"/></filter>
  </defs>

  <rect width="2000" height="800" fill="url(#bg)"/>
  <rect width="2000" height="800" fill="url(#aura)"/>
  <rect width="2000" height="800" fill="url(#grid)"/>
  <path d="M0 642C365 554 615 715 1000 590s670-116 1000 0V800H0Z" fill="#04152f" opacity=".83"/>
  <path d="M0 694C364 625 632 750 982 634s666-104 1018-20" fill="none" stroke="#2ad9ef" stroke-opacity=".18" stroke-width="2"/>

  <!-- Abstract measurement rings -->
  <g fill="none" stroke="#42e1f2" opacity=".38">
    <circle cx="1540" cy="278" r="156" stroke-width="1"/>
    <circle cx="1540" cy="278" r="111" stroke-width="1" stroke-dasharray="7 13"/>
    <circle cx="1540" cy="278" r="69" stroke-width="2" stroke-dasharray="2 10"/>
    <path d="M1348 278h384M1540 86v384" stroke-width="1"/>
  </g>
  <g fill="#79f7ff" filter="url(#glow)"><circle cx="1384" cy="278" r="5"/><circle cx="1540" cy="122" r="5"/><circle cx="1644" cy="383" r="4"/></g>
  <g fill="none" stroke="#20c9e7" stroke-width="2" opacity=".45"><path d="M1156 495h179l39-39h101"/><path d="M1415 598h132l28-28h188"/><path d="M1210 144h120l30 30h166"/></g>
  <g fill="#5df5ff" filter="url(#glow)"><circle cx="1335" cy="495" r="4"/><circle cx="1575" cy="570" r="4"/><circle cx="1360" cy="174" r="4"/></g>

  <!-- Electron microscope workstation -->
  <g filter="url(#shadow)" transform="translate(172 50)">
    <!-- desk -->
    <path d="M55 589h645l42 38v75H38V627Z" fill="url(#metal)" stroke="#b6eefa" stroke-opacity=".5" stroke-width="3"/>
    <path d="M38 627h704" stroke="#76f0ff" stroke-opacity=".65" stroke-width="4"/>
    <path d="M92 703v42M281 703v42M579 703v42M699 703v42" stroke="#8bd8e8" stroke-width="16"/>
    <!-- left cabinet -->
    <path d="M65 633h199v75H65Z" fill="#8aa5b5" opacity=".9"/><path d="M264 633h197v75H264Z" fill="#7090a4"/>
    <path d="M461 633h236v75H461Z" fill="#8aa5b5"/>
    <g fill="#18dff4"><circle cx="245" cy="670" r="5"/><circle cx="442" cy="670" r="5"/><circle cx="678" cy="670" r="5"/></g>
    <!-- central microscope column -->
    <path d="M267 136c0-38 30-68 68-68s68 30 68 68v83h-136Z" fill="url(#metal)" stroke="#d3fbff" stroke-width="3"/>
    <path d="M278 201h114v254H278Z" fill="url(#metal)" stroke="#d3fbff" stroke-width="3"/>
    <path d="M290 226h90v36h-90Z" fill="#4a7189"/><path d="M299 235h72v17h-72Z" fill="#072a4a"/>
    <path d="M301 455h69v107h-69Z" fill="#b6d8e4"/>
    <path d="M318 456h35v84h-35Z" fill="#476d84"/>
    <!-- top optic and arm -->
    <path d="M304 68h61v-50h-61Z" fill="url(#metal)" stroke="#d3fbff" stroke-width="3"/>
    <path d="M314 18h41v-30h-41Z" fill="#c1e8f0"/>
    <path d="M392 154c100 1 122 58 122 120v102h-42V272c0-43-22-75-80-76Z" fill="url(#metal)" stroke="#d3fbff" stroke-width="3"/>
    <path d="M475 224h64v166h-64Z" fill="url(#metal)" stroke="#d3fbff" stroke-width="3"/>
    <path d="M484 239h46v100h-46Z" fill="#587b8f"/>
    <!-- specimen chamber -->
    <ellipse cx="332" cy="501" rx="82" ry="39" fill="#bedde7" stroke="#dcfdff" stroke-width="4"/>
    <ellipse cx="332" cy="495" rx="55" ry="24" fill="#0c3857" stroke="#42e9fa" stroke-width="3"/>
    <circle cx="332" cy="495" r="13" fill="#61f4ff" filter="url(#glow)"/>
    <!-- controls -->
    <g fill="#c6e6ed" stroke="#dffeff" stroke-width="2"><circle cx="250" cy="316" r="24"/><circle cx="414" cy="333" r="22"/><circle cx="256" cy="380" r="15"/></g>
    <g fill="#19dff4"><circle cx="250" cy="316" r="7"/><circle cx="414" cy="333" r="6"/><circle cx="256" cy="380" r="4"/></g>
    <!-- monitor -->
    <path d="M545 384h167v111H545Z" fill="#a9cad6" stroke="#d6faff" stroke-width="4"/>
    <path d="M557 396h143v81H557Z" fill="#052745"/>
    <path d="M566 456c17-43 39-6 55-38 17-34 36 36 55-17 10-28 18-10 18-10" fill="none" stroke="#58f5ff" stroke-width="3" filter="url(#glow)"/>
    <path d="M607 495h42v48h-42Z" fill="url(#metal)"/><path d="M578 542h102" stroke="#a8d5df" stroke-width="10"/>
    <!-- light traces -->
    <g fill="none" stroke="#58f5ff" stroke-linecap="round" filter="url(#glow)"><path d="M332 58v-36" stroke-width="3"/><path d="M332 501H191" stroke-width="3"/><path d="M539 288h46" stroke-width="2"/></g>
  </g>

  <!-- Right-side abstract scan panel, intentionally text-free -->
  <g transform="translate(1710 488)" fill="none" stroke="#7aeefa" opacity=".5"><rect width="154" height="104" rx="8"/><path d="M20 74l24-25 24 15 28-42 40 26M20 25h44M20 34h71"/><circle cx="121" cy="29" r="12"/></g>
  <path d="M1040 723h705" stroke="#36d9eb" stroke-opacity=".32" stroke-width="2" stroke-dasharray="7 12"/>

  <!-- Brand and scannable QR block -->
  <g transform="translate(1245 604)">
    <rect x="0" y="0" width="593" height="132" rx="14" fill="#061a35" fill-opacity=".82" stroke="#4ce9f4" stroke-opacity=".42" stroke-width="2"/>
    <path d="M28 34h44M28 34v44M400 98h-42M400 98V56" fill="none" stroke="#4ce9f4" stroke-width="3" opacity=".7"/>
    <text x="95" y="59" fill="#e9feff" font-family="PingFang SC, Microsoft YaHei, Noto Sans CJK SC, sans-serif" font-size="38" font-weight="700" letter-spacing="4">精研汇智</text>
    <text x="98" y="91" fill="#76ddea" font-family="Arial, PingFang SC, Microsoft YaHei, sans-serif" font-size="15" letter-spacing="2">PRECISION RESEARCH · INTELLIGENT INSIGHT</text>
    <rect x="435" y="-20" width="154" height="154" rx="9" fill="#fff" stroke="#76f4ff" stroke-width="3"/>
    <!-- 此处嵌入第二张二维码 SVG -->
    <svg x="442" y="-13" width="140" height="140" viewBox="0 0 1444 1408" preserveAspectRatio="xMidYMid meet" xmlns="http://www.w3.org/2000/svg" shape-rendering="crispEdges">
      <rect width="1444" height="1408" fill="white"/>
      <polygon points="64,52 348,52 348,92 64,92" fill="black"/><polygon points="64,92 144,92 144,93 64,93" fill="black"/><polygon points="64,93 104,93 104,294 64,294" fill="black"/><polygon points="64,294 105,294 105,295 64,295" fill="black"/><polygon points="64,295 348,295 348,335 64,335" fill="black"/><polygon points="64,376 104,376 104,457 64,457" fill="black"/><polygon points="64,538 104,538 104,619 64,619" fill="black"/><polygon points="64,660 104,660 104,700 64,700" fill="black"/><polygon points="64,700 348,700 348,741 64,741" fill="black"/><polygon points="64,781 145,781 145,822 64,822" fill="black"/><polygon points="64,862 306,862 306,863 64,863" fill="black"/><polygon points="64,863 145,863 145,903 64,903" fill="black"/><polygon points="64,903 104,903 104,943 64,943" fill="black"/><polygon points="64,1024 145,1024 145,1065 64,1065" fill="black"/><polygon points="64,1105 347,1105 347,1106 64,1106" fill="black"/><polygon points="64,1106 348,1106 348,1146 64,1146" fill="black"/><polygon points="64,1146 104,1146 104,1348 64,1348" fill="black"/><polygon points="64,1348 105,1348 105,1349 64,1349" fill="black"/><polygon points="64,1349 348,1349 348,1389 64,1389" fill="black"/><polygon points="64,1389 104,1389 104,1390 64,1390" fill="black"/><polygon points="104,498 185,498 185,537 104,537" fill="black"/><polygon points="104,537 186,537 186,538 104,538" fill="black"/><polygon points="104,619 145,619 145,660 104,660" fill="black"/><polygon points="104,741 145,741 145,781 104,781" fill="black"/><polygon points="104,822 226,822 226,862 104,862" fill="black"/><polygon points="105,497 186,497 186,498 105,498" fill="black"/><polygon points="105,1389 144,1389 144,1390 105,1390" fill="black"/><polygon points="145,92 225,92 225,93 145,93" fill="black"/><polygon points="145,133 266,133 266,254 145,254" fill="black"/><polygon points="145,416 185,416 185,456 145,456" fill="black"/><polygon points="145,456 186,456 186,457 145,457" fill="black"/><polygon points="145,457 266,457 266,497 145,497" fill="black"/><polygon points="145,538 266,538 266,578 145,578" fill="black"/><polygon points="145,903 185,903 185,984 145,984" fill="black"/><polygon points="145,1186 266,1186 266,1308 145,1308" fill="black"/><polygon points="145,1389 225,1389 225,1390 145,1390" fill="black"/><polygon points="185,578 266,578 266,618 185,618" fill="black"/><polygon points="185,660 226,660 226,700 185,700" fill="black"/><polygon points="185,741 266,741 266,781 185,781" fill="black"/><polygon points="185,863 266,863 266,903 185,903" fill="black"/><polygon points="185,984 226,984 226,1024 185,1024" fill="black"/><polygon points="186,618 266,618 266,619 186,619" fill="black"/><polygon points="186,781 225,781 225,782 186,782" fill="black"/><polygon points="226,92 348,92 348,93 226,93" fill="black"/><polygon points="226,376 266,376 266,416 226,416" fill="black"/><polygon points="226,781 306,781 306,782 226,782" fill="black"/><polygon points="226,943 388,943 388,984 226,984" fill="black"/><polygon points="226,1024 266,1024 266,1065 226,1065" fill="black"/><polygon points="226,1389 306,1389 306,1390 226,1390" fill="black"/><polygon points="266,619 388,619 388,659 266,659" fill="black"/><polygon points="266,659 389,659 389,660 266,660" fill="black"/><polygon points="266,660 307,660 307,700 266,700" fill="black"/><polygon points="266,782 388,782 388,822 266,822" fill="black"/><polygon points="266,822 307,822 307,862 266,862" fill="black"/><polygon points="307,93 348,93 348,295 307,295" fill="black"/><polygon points="307,376 429,376 429,416 307,416" fill="black"/><polygon points="307,457 388,457 388,497 307,497" fill="black"/><polygon points="307,538 348,538 348,578 307,578" fill="black"/><polygon points="307,781 387,781 387,782 307,782" fill="black"/><polygon points="307,862 470,862 470,863 307,863" fill="black"/><polygon points="307,863 388,863 388,903 307,903" fill="black"/><polygon points="307,1024 550,1024 550,1025 307,1025" fill="black"/><polygon points="307,1025 551,1025 551,1065 307,1065" fill="black"/><polygon points="307,1146 348,1146 348,1349 307,1349" fill="black"/><polygon points="307,1389 347,1389 347,1390 307,1390" fill="black"/><polygon points="347,416 631,416 631,417 347,417" fill="black"/><polygon points="347,456 631,456 631,457 347,457" fill="black"/><polygon points="348,417 632,417 632,456 348,456" fill="black"/><polygon points="348,660 429,660 429,700 348,700" fill="black"/><polygon points="348,822 470,822 470,862 348,862" fill="black"/><polygon points="348,903 388,903 388,943 348,943" fill="black"/><polygon points="388,52 591,52 591,92 388,92" fill="black"/><polygon points="388,174 591,174 591,214 388,214" fill="black"/><polygon points="388,214 470,214 470,295 388,295" fill="black"/><polygon points="388,295 429,295 429,335 388,335" fill="black"/><polygon points="388,335 470,335 470,376 388,376" fill="black"/><polygon points="388,579 470,579 470,619 388,619" fill="black"/><polygon points="388,984 429,984 429,1024 388,1024" fill="black"/><polygon points="388,1065 753,1065 753,1105 388,1105" fill="black"/><polygon points="388,1105 510,1105 510,1145 388,1145" fill="black"/><polygon points="388,1187 470,1187 470,1226 388,1226" fill="black"/><polygon points="388,1349 429,1349 429,1389 388,1389" fill="black"/><polygon points="389,92 510,92 510,93 389,93" fill="black"/><polygon points="389,173 591,173 591,174 389,174" fill="black"/><polygon points="389,578 469,578 469,579 389,579" fill="black"/><polygon points="389,1145 510,1145 510,1146 389,1146" fill="black"/><polygon points="389,1186 470,1186 470,1187 389,1187" fill="black"/><polygon points="389,1226 470,1226 470,1227 389,1227" fill="black"/><polygon points="389,1389 428,1389 428,1390 389,1390" fill="black"/><polygon points="429,93 470,93 470,133 429,133" fill="black"/><polygon points="429,497 470,497 470,537 429,537" fill="black"/><polygon points="429,537 469,537 469,538 429,538" fill="black"/><polygon points="429,741 672,741 672,781 429,781" fill="black"/><polygon points="429,863 470,863 470,902 429,902" fill="black"/><polygon points="429,902 469,902 469,903 429,903" fill="black"/><polygon points="429,1146 470,1146 470,1186 429,1186" fill="black"/><polygon points="429,1227 470,1227 470,1267 429,1267" fill="black"/><polygon points="429,1267 632,1267 632,1308 429,1308" fill="black"/><polygon points="429,1308 510,1308 510,1349 429,1349" fill="black"/><polygon points="430,781 510,781 510,782 430,782" fill="black"/><polygon points="470,133 632,133 632,173 470,173" fill="black"/><polygon points="470,295 510,295 510,335 470,335" fill="black"/><polygon points="470,376 551,376 551,416 470,416" fill="black"/><polygon points="470,457 551,457 551,497 470,497" fill="black"/><polygon points="470,619 510,619 510,700 470,700" fill="black"/><polygon points="470,700 632,700 632,741 470,741" fill="black"/><polygon points="470,984 510,984 510,1024 470,1024" fill="black"/><polygon points="510,214 551,214 551,254 510,254" fill="black"/><polygon points="510,497 551,497 551,537 510,537" fill="black"/><polygon points="510,537 550,537 550,538 510,538" fill="black"/><polygon points="510,578 591,578 591,619 510,619" fill="black"/><polygon points="510,863 551,863 551,983 510,983" fill="black"/><polygon points="510,983 550,983 550,984 510,984" fill="black"/><polygon points="510,1146 591,1146 591,1186 510,1186" fill="black"/><polygon points="511,92 591,92 591,93 511,93" fill="black"/><polygon points="511,781 712,781 712,782 511,782" fill="black"/><polygon points="511,862 550,862 550,863 511,863" fill="black"/><polygon points="550,619 672,619 672,620 550,620" fill="black"/><polygon points="550,1105 632,1105 632,1106 550,1106" fill="black"/><polygon points="550,1145 631,1145 631,1146 550,1146" fill="black"/><polygon points="550,1186 591,1186 591,1187 550,1187" fill="black"/><polygon points="550,1308 632,1308 632,1309 550,1309" fill="black"/><polygon points="551,93 591,93 591,133 551,133" fill="black"/><polygon points="551,295 591,295 591,376 551,376" fill="black"/><polygon points="551,620 672,620 672,660 551,660" fill="black"/><polygon points="551,782 591,782 591,822 551,822" fill="black"/><polygon points="551,1106 632,1106 632,1145 551,1145" fill="black"/><polygon points="551,1187 591,1187 591,1267 551,1267" fill="black"/><polygon points="551,1309 632,1309 632,1349 551,1349" fill="black"/><polygon points="591,254 672,254 672,295 591,295" fill="black"/><polygon points="591,538 712,538 712,578 591,578" fill="black"/><polygon points="591,984 834,984 834,1024 591,1024" fill="black"/><polygon points="591,1349 632,1349 632,1389 591,1389" fill="black"/><polygon points="592,1389 631,1389 631,1390 592,1390" fill="black"/><polygon points="631,537 672,537 672,538 631,538" fill="black"/><polygon points="631,983 713,983 713,984 631,984" fill="black"/><polygon points="632,173 713,173 713,174 632,174" fill="black"/><polygon points="632,174 712,174 712,214 632,214" fill="black"/><polygon points="632,214 672,214 672,254 632,254" fill="black"/><polygon points="632,295 672,295 672,335 632,335" fill="black"/><polygon points="632,335 834,335 834,376 632,376" fill="black"/><polygon points="632,497 672,497 672,537 632,537" fill="black"/><polygon points="632,660 672,660 672,700 632,700" fill="black"/><polygon points="632,782 712,782 712,822 632,822" fill="black"/><polygon points="632,822 672,822 672,862 632,862" fill="black"/><polygon points="632,862 753,862 753,903 632,903" fill="black"/><polygon points="632,943 712,943 712,983 632,983" fill="black"/><polygon points="632,1227 672,1227 672,1267 632,1267" fill="black"/><polygon points="672,52 712,52 712,92 672,92" fill="black"/><polygon points="672,133 753,133 753,173 672,173" fill="black"/><polygon points="672,416 753,416 753,457 672,457" fill="black"/><polygon points="672,457 712,457 712,497 672,497" fill="black"/><polygon points="672,700 834,700 834,741 672,741" fill="black"/><polygon points="672,1105 713,1105 713,1106 672,1106" fill="black"/><polygon points="672,1106 712,1106 712,1146 672,1146" fill="black"/><polygon points="672,1186 712,1186 712,1227 672,1227" fill="black"/><polygon points="672,1349 712,1349 712,1389 672,1389" fill="black"/><polygon points="673,92 712,92 712,93 673,93" fill="black"/><polygon points="673,1389 712,1389 712,1390 673,1390" fill="black"/><polygon points="712,255 753,255 753,335 712,335" fill="black"/><polygon points="712,376 753,376 753,416 712,416" fill="black"/><polygon points="712,578 793,578 793,619 712,619" fill="black"/><polygon points="712,619 753,619 753,659 712,659" fill="black"/><polygon points="712,741 793,741 793,781 712,781" fill="black"/><polygon points="712,822 753,822 753,862 712,862" fill="black"/><polygon points="712,1227 753,1227 753,1267 712,1267" fill="black"/><polygon points="712,1267 874,1267 874,1307 712,1307" fill="black"/><polygon points="713,254 753,254 753,255 713,255" fill="black"/><polygon points="713,659 753,659 753,660 713,660" fill="black"/><polygon points="713,781 793,781 793,782 713,782" fill="black"/><polygon points="713,1307 875,1307 875,1308 713,1308" fill="black"/><polygon points="753,52 874,52 874,93 753,93" fill="black"/><polygon points="753,93 793,93 793,133 753,133" fill="black"/><polygon points="753,173 955,173 955,214 753,214" fill="black"/><polygon points="753,457 793,457 793,497 753,497" fill="black"/><polygon points="753,497 834,497 834,538 753,538" fill="black"/><polygon points="753,660 955,660 955,700 753,700" fill="black"/><polygon points="753,1105 793,1105 793,1145 753,1145" fill="black"/><polygon points="753,1145 794,1145 794,1146 753,1146" fill="black"/><polygon points="753,1146 874,1146 874,1186 753,1186" fill="black"/><polygon points="753,1308 794,1308 794,1309 753,1309" fill="black"/><polygon points="753,1309 793,1309 793,1390 753,1390" fill="black"/><polygon points="793,214 955,214 955,254 793,254" fill="black"/><polygon points="793,295 834,295 834,335 793,335" fill="black"/><polygon points="793,417 834,417 834,457 793,457" fill="black"/><polygon points="793,538 834,538 834,578 793,578" fill="black"/><polygon points="793,619 874,619 874,659 793,659" fill="black"/><polygon points="793,659 875,659 875,660 793,660" fill="black"/><polygon points="793,782 834,782 834,822 793,822" fill="black"/><polygon points="793,903 915,903 915,943 793,943" fill="black"/><polygon points="793,1186 915,1186 915,1226 793,1226" fill="black"/><polygon points="794,416 834,416 834,417 794,417" fill="black"/><polygon points="794,781 833,781 833,782 794,782" fill="black"/><polygon points="794,1226 915,1226 915,1227 794,1227" fill="black"/><polygon points="834,93 874,93 874,133 834,133" fill="black"/><polygon points="834,133 915,133 915,173 834,173" fill="black"/><polygon points="834,254 875,254 875,255 834,255" fill="black"/><polygon points="834,255 874,255 874,295 834,295" fill="black"/><polygon points="834,376 1280,376 1280,416 834,416" fill="black"/><polygon points="834,578 874,578 874,619 834,619" fill="black"/><polygon points="834,822 915,822 915,862 834,862" fill="black"/><polygon points="834,862 914,862 914,863 834,863" fill="black"/><polygon points="834,1024 955,1024 955,1065 834,1065" fill="black"/><polygon points="834,1227 874,1227 874,1267 834,1267" fill="black"/><polygon points="834,1308 1036,1308 1036,1348 834,1348" fill="black"/><polygon points="834,1348 1037,1348 1037,1349 834,1349" fill="black"/><polygon points="874,295 915,295 915,335 874,335" fill="black"/><polygon points="874,416 915,416 915,457 874,457" fill="black"/><polygon points="874,457 1118,457 1118,497 874,497" fill="black"/><polygon points="874,497 956,497 956,498 874,498" fill="black"/><polygon points="874,498 955,498 955,538 874,538" fill="black"/><polygon points="874,538 915,538 915,578 874,578" fill="black"/><polygon points="874,700 996,700 996,741 874,741" fill="black"/><polygon points="874,782 915,782 915,822 874,822" fill="black"/><polygon points="874,943 955,943 955,983 874,983" fill="black"/><polygon points="874,1106 996,1106 996,1146 874,1146" fill="black"/><polygon points="874,1349 1158,1349 1158,1389 874,1389" fill="black"/><polygon points="875,781 914,781 914,782 875,782" fill="black"/><polygon points="875,983 955,983 955,984 875,984" fill="black"/><polygon points="875,1105 996,1105 996,1106 875,1106" fill="black"/><polygon points="875,1389 914,1389 914,1390 875,1390" fill="black"/><polygon points="915,52 955,52 955,92 915,92" fill="black"/><polygon points="915,92 995,92 995,93 915,93" fill="black"/><polygon points="915,93 996,93 996,133 915,133" fill="black"/><polygon points="915,335 996,335 996,376 915,376" fill="black"/><polygon points="915,619 1158,619 1158,660 915,660" fill="black"/><polygon points="915,741 1036,741 1036,781 915,781" fill="black"/><polygon points="915,781 1076,781 1076,782 915,782" fill="black"/><polygon points="915,984 1118,984 1118,1024 915,1024" fill="black"/><polygon points="915,1146 955,1146 955,1186 915,1186" fill="black"/><polygon points="915,1227 996,1227 996,1267 915,1267" fill="black"/><polygon points="915,1389 1076,1389 1076,1390 915,1390" fill="black"/><polygon points="955,133 996,133 996,173 955,173" fill="black"/><polygon points="955,295 996,295 996,335 955,335" fill="black"/><polygon points="955,579 1036,579 1036,618 955,618" fill="black"/><polygon points="955,618 1037,618 1037,619 955,619" fill="black"/><polygon points="955,822 996,822 996,903 955,903" fill="black"/><polygon points="956,578 1036,578 1036,579 956,579" fill="black"/><polygon points="996,52 1036,52 1036,93 996,93" fill="black"/><polygon points="996,173 1036,173 1036,214 996,214" fill="black"/><polygon points="996,416 1037,416 1037,417 996,417" fill="black"/><polygon points="996,417 1036,417 1036,456 996,456" fill="black"/><polygon points="996,456 1037,456 1037,457 996,457" fill="black"/><polygon points="996,497 1158,497 1158,537 996,537" fill="black"/><polygon points="996,537 1159,537 1159,538 996,538" fill="black"/><polygon points="996,660 1036,660 1036,700 996,700" fill="black"/><polygon points="996,782 1118,782 1118,822 996,822" fill="black"/><polygon points="996,903 1077,903 1077,943 996,943" fill="black"/><polygon points="996,943 1037,943 1037,944 996,944" fill="black"/><polygon points="996,944 1036,944 1036,983 996,983" fill="black"/><polygon points="996,983 1037,983 1037,984 996,984" fill="black"/><polygon points="996,1065 1077,1065 1077,1105 996,1105" fill="black"/><polygon points="1036,214 1077,214 1077,254 1036,254" fill="black"/><polygon points="1036,295 1077,295 1077,376 1036,376" fill="black"/><polygon points="1036,538 1077,538 1077,578 1036,578" fill="black"/><polygon points="1036,700 1077,700 1077,741 1036,741" fill="black"/><polygon points="1036,822 1077,822 1077,862 1036,862" fill="black"/><polygon points="1036,1024 1239,1024 1239,1025 1036,1025" fill="black"/><polygon points="1036,1025 1240,1025 1240,1065 1036,1065" fill="black"/><polygon points="1036,1105 1077,1105 1077,1186 1036,1186" fill="black"/><polygon points="1036,1186 1280,1186 1280,1226 1036,1226" fill="black"/><polygon points="1036,1267 1077,1267 1077,1308 1036,1308" fill="black"/><polygon points="1037,1226 1280,1226 1280,1227 1037,1227" fill="black"/><polygon points="1038,862 1076,862 1076,863 1038,863" fill="black"/><polygon points="1077,416 1118,416 1118,457 1077,457" fill="black"/><polygon points="1077,660 1158,660 1158,700 1077,700" fill="black"/><polygon points="1077,781 1117,781 1117,782 1077,782" fill="black"/><polygon points="1077,943 1117,943 1117,944 1077,944" fill="black"/><polygon points="1077,944 1118,944 1118,984 1077,984" fill="black"/><polygon points="1077,1227 1280,1227 1280,1267 1077,1267" fill="black"/><polygon points="1077,1389 1157,1389 1157,1390 1077,1390" fill="black"/><polygon points="1117,538 1280,538 1280,539 1117,539" fill="black"/><polygon points="1117,700 1158,700 1158,701 1117,701" fill="black"/><polygon points="1117,1267 1240,1267 1240,1268 1117,1268" fill="black"/><polygon points="1117,1348 1158,1348 1158,1349 1117,1349" fill="black"/><polygon points="1118,52 1402,52 1402,92 1118,92" fill="black"/><polygon points="1118,92 1199,92 1199,93 1118,93" fill="black"/><polygon points="1118,93 1158,93 1158,294 1118,294" fill="black"/><polygon points="1118,294 1159,294 1159,295 1118,295" fill="black"/><polygon points="1118,295 1402,295 1402,335 1118,335" fill="black"/><polygon points="1118,539 1280,539 1280,578 1118,578" fill="black"/><polygon points="1118,701 1158,701 1158,741 1118,741" fill="black"/><polygon points="1118,863 1158,863 1158,903 1118,903" fill="black"/><polygon points="1118,1105 1158,1105 1158,1146 1118,1146" fill="black"/><polygon points="1118,1268 1240,1268 1240,1307 1118,1307" fill="black"/><polygon points="1118,1307 1239,1307 1239,1308 1118,1308" fill="black"/><polygon points="1118,1308 1159,1308 1159,1309 1118,1309" fill="black"/><polygon points="1118,1309 1158,1309 1158,1348 1118,1348" fill="black"/><polygon points="1119,862 1198,862 1198,863 1119,863" fill="black"/><polygon points="1158,578 1199,578 1199,619 1158,619" fill="black"/><polygon points="1158,782 1199,782 1199,862 1158,862" fill="black"/><polygon points="1158,903 1199,903 1199,1024 1158,1024" fill="black"/><polygon points="1159,781 1198,781 1198,782 1159,782" fill="black"/><polygon points="1199,133 1321,133 1321,254 1199,254" fill="black"/><polygon points="1199,619 1280,619 1280,660 1199,660" fill="black"/><polygon points="1199,660 1240,660 1240,700 1199,700" fill="black"/><polygon points="1199,700 1361,700 1361,741 1199,741" fill="black"/><polygon points="1199,1065 1240,1065 1240,1105 1199,1105" fill="black"/><polygon points="1199,1105 1280,1105 1280,1146 1199,1146" fill="black"/><polygon points="1199,1146 1240,1146 1240,1186 1199,1186" fill="black"/><polygon points="1200,92 1280,92 1280,93 1200,93" fill="black"/><polygon points="1239,416 1320,416 1320,417 1239,417" fill="black"/><polygon points="1240,417 1321,417 1321,456 1240,456" fill="black"/><polygon points="1240,456 1320,456 1320,457 1240,457" fill="black"/><polygon points="1240,457 1280,457 1280,497 1240,497" fill="black"/><polygon points="1240,741 1402,741 1402,781 1240,781" fill="black"/><polygon points="1240,781 1401,781 1401,782 1240,782" fill="black"/><polygon points="1240,782 1280,782 1280,822 1240,822" fill="black"/><polygon points="1240,862 1280,862 1280,903 1240,903" fill="black"/><polygon points="1240,903 1361,903 1361,943 1240,943" fill="black"/><polygon points="1240,943 1280,943 1280,984 1240,984" fill="black"/><polygon points="1240,1349 1321,1349 1321,1389 1240,1389" fill="black"/><polygon points="1240,1389 1280,1389 1280,1390 1240,1390" fill="black"/><polygon points="1280,578 1321,578 1321,619 1280,619" fill="black"/><polygon points="1280,1065 1402,1065 1402,1105 1280,1105" fill="black"/><polygon points="1281,92 1402,92 1402,93 1281,93" fill="black"/><polygon points="1281,1389 1320,1389 1320,1390 1281,1390" fill="black"/><polygon points="1320,902 1361,902 1361,903 1320,903" fill="black"/><polygon points="1320,943 1361,943 1361,944 1320,944" fill="black"/><polygon points="1320,1105 1361,1105 1361,1106 1320,1106" fill="black"/><polygon points="1321,497 1401,497 1401,498 1321,498" fill="black"/><polygon points="1321,498 1402,498 1402,537 1321,537" fill="black"/><polygon points="1321,537 1401,537 1401,538 1321,538" fill="black"/><polygon points="1321,538 1361,538 1361,578 1321,578" fill="black"/><polygon points="1321,619 1361,619 1361,660 1321,660" fill="black"/><polygon points="1321,782 1361,782 1361,902 1321,902" fill="black"/><polygon points="1321,944 1361,944 1361,984 1321,984" fill="black"/><polygon points="1321,1106 1361,1106 1361,1146 1321,1146" fill="black"/><polygon points="1321,1186 1401,1186 1401,1187 1321,1187" fill="black"/><polygon points="1321,1187 1402,1187 1402,1226 1321,1226" fill="black"/><polygon points="1321,1226 1401,1226 1401,1227 1321,1227" fill="black"/><polygon points="1321,1227 1361,1227 1361,1267 1321,1267" fill="black"/><polygon points="1361,93 1402,93 1402,295 1361,295" fill="black"/><polygon points="1361,376 1402,376 1402,416 1361,416" fill="black"/><polygon points="1361,1349 1402,1349 1402,1389 1361,1389" fill="black"/><polygon points="1362,1389 1401,1389 1401,1390 1362,1390" fill="black"/>
    </svg>
  </g>
</svg>